<svg xmlns="http://www.w3.org/2000/svg" viewBox="0 0 128 128" width="128" height="128">
  <defs>
    <linearGradient id="gradient" x1="0%" y1="0%" x2="100%" y2="100%">
      <stop offset="0%" style="stop-color:#3B82F6;stop-opacity:1" />
      <stop offset="100%" style="stop-color:#8B5CF6;stop-opacity:1" />
    </linearGradient>
  </defs>
  
  <!-- Background circle -->
  <circle cx="64" cy="64" r="56" fill="url(#gradient)" stroke="#ffffff" stroke-width="4"/>
  
  <!-- Shield icon -->
  <path d="M64 20 L90 32 L90 56 C90 76 77 94 64 100 C51 94 38 76 38 56 L38 32 Z" 
        fill="#ffffff" stroke="none"/>
  
  <!-- Document lines -->
  <rect x="52" y="40" width="24" height="2" rx="1" fill="url(#gradient)"/>
  <rect x="52" y="46" width="20" height="2" rx="1" fill="url(#gradient)"/>
  <rect x="52" y="52" width="22" height="2" rx="1" fill="url(#gradient)"/>
  <rect x="52" y="58" width="18" height="2" rx="1" fill="url(#gradient)"/>
  
  <!-- Magnifying glass -->
  <circle cx="74" cy="70" r="8" fill="none" stroke="url(#gradient)" stroke-width="2"/>
  <path d="m80 76 4 4" stroke="url(#gradient)" stroke-width="2" stroke-linecap="round"/>
  
  <!-- Warning indicator -->
  <circle cx="82" cy="42" r="6" fill="#EF4444"/>
  <path d="M82 39 L82 43 M82 45 L82 45" stroke="#ffffff" stroke-width="1.5" stroke-linecap="round"/>
</svg>